<svg xmlns="http://www.w3.org/2000/svg" viewBox="392.00 206.66 1049.00 1015.12">

<g>
<g>
<path transform="matrix(1,0,0,-1,533.0117,632.4907)" d="M0 0-121.012 247.109C-23.172 246.097 78.388 248.454 225.832 241.145 338.459 238.784 423.935 203.06 452.656 102.049 467.352 50.368 457.724-5.477 425.009-48.101 408.975-68.99 388.9-85.07 364.74-96.288 435.778-121.208 500.273-167.792 510.276-245.278 512.483-262.377 511.589-279.721 508.281-296.642 495.658-361.231 459.055-406.892 402.647-436.921 380.083-448.933 355.795-457.386 330.757-462.539 282.52-472.465 244.751-476.832 211.345-478.881L145.726-329.763 234.692-329.095C257.6-328.922 280.088-322.374 299.204-309.75 314.328-299.763 322.57-289.292 327.271-278.573 336.751-256.957 333.29-231.592 318.28-213.374 298.766-189.689 266.381-183.138 228.389-184.054L80.106-183.202 13.635-36.641H201.118C256.701-33.47 276.826-9.147 282.748 23.647 285.243 37.465 283.909 51.788 278.092 64.568 264.703 93.985 234.875 103.501 196.857 103.104L5.965 104.808Z" fill="#020202"/>
<path transform="matrix(1,0,0,-1,1029.8418,527.6826)" d="M0 0C113.727 22.799 205.932 1.555 276.111-64.76L390.306 46.014C253.345 156.361 91.316 182.67-92.889 134.632-52.957 98.326-17.159 58.069 0 0" fill="#020202"/>
<path transform="matrix(1,0,0,-1,1071.5996,976.7397)" d="M0 0C-20.667-57.405-59.792-92.935-107.376-118.442 70.777-174.767 224.713-147.066 349.4-17.894L240.319 82.654C164.513 33.561 88.034-12.168 0 0" fill="#020202"/>
<path transform="matrix(1,0,0,-1,795.062,1146.7344)" d="M0 0C75.229-28.977 159.178-33.195 254.807-4.26L260.772-25.562C182.066-48.714 94.457-55.053-6.817-19.598Z" fill="#223c80"/>
<path transform="matrix(1,0,0,-1,699.6162,313.3789)" d="M0 0C145.086 83.976 293.193 86.716 443.994 17.042L429.507-3.409C282.322 65.009 144.058 55.961 13.209-17.468Z" fill="#223c80"/>
</g>
</g>
</svg>
